# xmcd CD database file
#
# Track frame offsets:
#	150
#	19200
#	38607
#	61962
#
# Disc length: 889 seconds
#
# Revision: 1
# Processed by: cddbd v1.5.2PL0 Copyright (c) Steve Scherf et al.
# Submitted via: CDex 1.60beta1-cs1
#
DISCID=29037704
DTITLE=GOMES THE HITMAN - maybe someday e.p.
DYEAR=2000
DGENRE=Pop
TTITLE0=僕らの暮らし(life goes on)
TTITLE1=緑の車(green automobile)
TTITLE2=maybe someday
TTITLE3=maybe someday (remix)
EXTD=YEAR: 2000
EXTT0=
EXTT1=
EXTT2=
EXTT3=
PLAYORDER=
